<svg width="32" height="32" viewBox="0 0 32 32" fill="none" xmlns="http://www.w3.org/2000/svg">
<path d="M16.0001 0C7.16466 0 0 7.34463 0 16.4051C0 23.6533 4.58452 29.8026 10.9419 31.9718C11.7415 32.1237 12.0351 31.6159 12.0351 31.1826C12.0351 30.7914 12.0202 29.4991 12.0133 28.1283C7.56209 29.1207 6.62283 26.1928 6.62283 26.1928C5.89499 24.2966 4.8463 23.7924 4.8463 23.7924C3.39461 22.7742 4.95573 22.7951 4.95573 22.7951C6.56242 22.9108 7.40842 24.4856 7.40842 24.4856C8.83547 26.9936 11.1514 26.2685 12.0645 25.8494C12.2081 24.7891 12.6227 24.0654 13.0803 23.6557C9.52647 23.2409 5.7906 21.8342 5.7906 15.5483C5.7906 13.7572 6.41563 12.2938 7.43916 11.1449C7.27303 10.7317 6.72536 9.06316 7.59415 6.80348C7.59415 6.80348 8.93774 6.36258 11.9953 8.48506C13.2716 8.12158 14.6404 7.9393 16.0001 7.93305C17.3599 7.9393 18.7297 8.12158 20.0084 8.48506C23.0623 6.36258 24.404 6.80348 24.404 6.80348C25.2749 9.06316 24.727 10.7317 24.5608 11.1449C25.5868 12.2938 26.2075 13.7572 26.2075 15.5483C26.2075 21.8492 22.4645 23.2365 18.9017 23.6427C19.4756 24.1518 19.9869 25.1501 19.9869 26.6807C19.9869 28.8757 19.9684 30.6423 19.9684 31.1826C19.9684 31.6192 20.2564 32.1307 21.0674 31.9696C27.4213 29.798 32 23.6508 32 16.4051C32 7.34463 24.8364 0 16.0001 0ZM5.99257 23.3694C5.95733 23.4509 5.83227 23.4753 5.71834 23.4194C5.60229 23.3658 5.53711 23.2547 5.57474 23.173C5.60918 23.089 5.7345 23.0657 5.85029 23.1219C5.9666 23.1754 6.03284 23.2876 5.99257 23.3694ZM6.7796 24.0894C6.70329 24.1619 6.55412 24.1283 6.45291 24.0136C6.34825 23.8992 6.32864 23.7463 6.40601 23.6727C6.4847 23.6001 6.62937 23.6341 6.73429 23.7485C6.83895 23.8642 6.85935 24.0161 6.7796 24.0894ZM7.31953 25.0107C7.2215 25.0805 7.0612 25.015 6.9621 24.8691C6.86407 24.7232 6.86407 24.5483 6.96422 24.4782C7.06358 24.4081 7.2215 24.4711 7.32191 24.6159C7.41968 24.7643 7.41968 24.9392 7.31953 25.0107ZM8.23267 26.0776C8.14497 26.1768 7.95818 26.1501 7.82146 26.0148C7.68156 25.8825 7.64261 25.6948 7.73058 25.5957C7.81934 25.4962 8.00719 25.5242 8.14497 25.6584C8.28381 25.7904 8.3262 25.9795 8.23267 26.0776ZM9.41281 26.4378C9.37413 26.5663 9.19423 26.6247 9.013 26.5701C8.83203 26.5138 8.7136 26.3633 8.75016 26.2335C8.78778 26.1042 8.96848 26.0433 9.15104 26.1017C9.33174 26.1577 9.45044 26.3071 9.41281 26.4378ZM10.7559 26.5906C10.7604 26.7259 10.6067 26.838 10.4165 26.8405C10.2252 26.8448 10.0704 26.7354 10.0683 26.6022C10.0683 26.4656 10.2185 26.3545 10.4098 26.3512C10.6001 26.3474 10.7559 26.4561 10.7559 26.5906ZM12.0753 26.5387C12.0981 26.6707 11.9658 26.8063 11.7769 26.8424C11.5912 26.8772 11.4192 26.7957 11.3957 26.6648C11.3726 26.5295 11.5072 26.3939 11.6927 26.3589C11.8819 26.3252 12.0512 26.4045 12.0753 26.5387Z" fill="#EE7934"/>
</svg>
