<svg width="300" height="117" viewBox="0 0 300 117" fill="none" xmlns="http://www.w3.org/2000/svg">
<path d="M54.4985 92.6836H61.1446V86.4C66.0587 85.8361 69.8853 84.3256 72.6243 81.8685C75.3633 79.4114 76.7328 76.1287 76.7328 72.0201C76.7328 67.9116 75.5647 64.5684 73.2285 61.9905C70.8923 59.4126 66.9449 56.9555 61.3863 54.6193C56.7139 52.6859 53.3304 50.9539 51.2358 49.4232C49.1413 47.8926 48.094 45.8384 48.094 43.2605C48.094 40.7631 49.0003 38.7894 50.8129 37.3394C52.6255 35.8893 55.1027 35.1643 58.2445 35.1643C60.6613 35.1643 62.7558 35.7282 64.5281 36.856C66.3004 37.9838 67.7908 39.6756 68.9992 41.9312L74.7994 39.1519C73.4299 36.3324 71.6173 34.117 69.3617 32.5058C67.106 30.8946 64.4476 29.9279 61.3863 29.6057V23.4429H54.7402V29.6057C50.6316 30.1696 47.3891 31.6801 45.0126 34.1371C42.6361 36.5942 41.4479 39.6353 41.4479 43.2605C41.4479 47.2079 42.6563 50.3497 45.073 52.6859C47.4898 55.0221 51.115 57.1972 55.9486 59.2112C61.346 61.4669 65.0518 63.501 67.0657 65.3136C69.0797 67.1262 70.0867 69.3617 70.0867 72.0201C70.0867 74.598 69.0193 76.6724 66.8845 78.2433C64.7497 79.8142 62.0711 80.5997 58.8487 80.5997C55.7069 80.5997 52.9074 79.7135 50.4504 77.9412C47.9933 76.1689 46.2814 73.7522 45.3147 70.6909L39.1519 72.7452C40.8437 76.4509 42.9181 79.3712 45.3751 81.506C47.8322 83.6408 50.8733 85.1916 54.4985 86.1583V92.6836ZM58.0028 106.338C51.397 106.338 45.1536 105.07 39.2728 102.532C33.3919 99.9943 28.2563 96.5303 23.8658 92.1398C19.4753 87.7493 16.0113 82.6137 13.4737 76.7328C10.936 70.852 9.66724 64.6087 9.66724 58.0028C9.66724 51.3164 10.936 45.0328 13.4737 39.1519C16.0113 33.2711 19.4753 28.1556 23.8658 23.8054C28.2563 19.4552 33.3919 16.0113 39.2728 13.4737C45.1536 10.936 51.397 9.66724 58.0028 9.66724C64.6892 9.66724 70.9729 10.936 76.8537 13.4737C82.7345 16.0113 87.85 19.4552 92.2002 23.8054C96.5504 28.1556 99.9943 33.2711 102.532 39.1519C105.07 45.0328 106.338 51.3164 106.338 58.0028C106.338 64.6087 105.07 70.852 102.532 76.7328C99.9943 82.6137 96.5504 87.7493 92.2002 92.1398C87.85 96.5303 82.7345 99.9943 76.8537 102.532C70.9729 105.07 64.6892 106.338 58.0028 106.338Z" fill="black"/>
<path d="M93.133 51.1815C94.0998 49.5574 95.3758 48.3007 96.9612 47.4113C98.5853 46.4832 100.499 46.0192 102.703 46.0192V52.8635H101.021C98.4306 52.8635 96.4585 53.5209 95.1051 54.8356C93.7904 56.1504 93.133 58.4318 93.133 61.68V78.5007H86.5207V46.5412H93.133V51.1815Z" fill="white"/>
<path d="M121.658 46.0192C124.133 46.0192 126.318 46.5219 128.212 47.5273C130.146 48.494 131.654 49.7121 132.737 51.1815V46.5412H139.407V79.0228C139.407 81.9616 138.788 84.5717 137.551 86.8531C136.313 89.1732 134.515 90.9906 132.157 92.3054C129.837 93.6201 127.052 94.2775 123.804 94.2775C119.473 94.2775 115.877 93.2528 113.016 91.2033C110.154 89.1926 108.53 86.4471 108.144 82.9669H114.698C115.2 84.6297 116.264 85.9637 117.888 86.9691C119.551 88.0132 121.523 88.5352 123.804 88.5352C126.472 88.5352 128.618 87.7232 130.243 86.0991C131.905 84.475 132.737 82.1162 132.737 79.0228V73.6865C131.615 75.1946 130.088 76.4706 128.154 77.5147C126.26 78.5201 124.094 79.0228 121.658 79.0228C118.874 79.0228 116.322 78.3267 114.002 76.9347C111.72 75.5039 109.903 73.5318 108.55 71.0184C107.235 68.4663 106.577 65.5855 106.577 62.376C106.577 59.1665 107.235 56.3244 108.55 53.8496C109.903 51.3748 111.72 49.4607 114.002 48.1073C116.322 46.7153 118.874 46.0192 121.658 46.0192ZM132.737 62.492C132.737 60.2879 132.273 58.3738 131.345 56.7497C130.455 55.1256 129.276 53.8883 127.806 53.0375C126.337 52.1868 124.752 51.7615 123.05 51.7615C121.349 51.7615 119.763 52.1868 118.294 53.0375C116.825 53.8496 115.626 55.0676 114.698 56.6917C113.808 58.2771 113.364 60.1719 113.364 62.376C113.364 64.5801 113.808 66.5135 114.698 68.1763C115.626 69.839 116.825 71.1151 118.294 72.0044C119.802 72.8551 121.387 73.2805 123.05 73.2805C124.752 73.2805 126.337 72.8551 127.806 72.0044C129.276 71.1537 130.455 69.9163 131.345 68.2923C132.273 66.6295 132.737 64.6961 132.737 62.492ZM145.888 62.376C145.888 59.1665 146.545 56.3244 147.86 53.8496C149.213 51.3748 151.031 49.4607 153.312 48.1073C155.632 46.7153 158.184 46.0192 160.969 46.0192C163.482 46.0192 165.667 46.5219 167.523 47.5273C169.418 48.494 170.926 49.7121 172.047 51.1815V46.5412H178.717V78.5007H172.047V73.7445C170.926 75.2526 169.398 76.5093 167.465 77.5147C165.531 78.5201 163.327 79.0228 160.853 79.0228C158.107 79.0228 155.594 78.3267 153.312 76.9347C151.031 75.5039 149.213 73.5318 147.86 71.0184C146.545 68.4663 145.888 65.5855 145.888 62.376ZM172.047 62.492C172.047 60.2879 171.583 58.3738 170.655 56.7497C169.766 55.1256 168.586 53.8883 167.117 53.0375C165.647 52.1868 164.062 51.7615 162.361 51.7615C160.659 51.7615 159.074 52.1868 157.604 53.0375C156.135 53.8496 154.936 55.0676 154.008 56.6917C153.119 58.2771 152.674 60.1719 152.674 62.376C152.674 64.5801 153.119 66.5135 154.008 68.1763C154.936 69.839 156.135 71.1151 157.604 72.0044C159.112 72.8551 160.698 73.2805 162.361 73.2805C164.062 73.2805 165.647 72.8551 167.117 72.0044C168.586 71.1537 169.766 69.9163 170.655 68.2923C171.583 66.6295 172.047 64.6961 172.047 62.492ZM203.527 46.0192C206.041 46.0192 208.283 46.5412 210.255 47.5853C212.266 48.6293 213.832 50.1761 214.954 52.2255C216.075 54.2749 216.636 56.7497 216.636 59.6499V78.5007H210.081V60.6359C210.081 57.7744 209.366 55.5897 207.935 54.0816C206.505 52.5349 204.552 51.7615 202.077 51.7615C199.602 51.7615 197.63 52.5349 196.161 54.0816C194.73 55.5897 194.015 57.7744 194.015 60.6359V78.5007H187.402V46.5412H194.015V50.1954C195.097 48.8807 196.47 47.856 198.133 47.1213C199.834 46.3866 201.632 46.0192 203.527 46.0192ZM228.434 42.3071C227.236 42.3071 226.23 41.901 225.418 41.089C224.606 40.277 224.2 39.2716 224.2 38.0729C224.2 36.8741 224.606 35.8688 225.418 35.0567C226.23 34.2447 227.236 33.8387 228.434 33.8387C229.594 33.8387 230.58 34.2447 231.392 35.0567C232.204 35.8688 232.61 36.8741 232.61 38.0729C232.61 39.2716 232.204 40.277 231.392 41.089C230.58 41.901 229.594 42.3071 228.434 42.3071ZM231.682 46.5412V78.5007H225.07V46.5412H231.682ZM246.222 73.1065H260.723V78.5007H238.566V73.1065L253.124 51.9355H238.566V46.5412H260.723V51.9355L246.222 73.1065ZM296.957 61.738C296.957 62.9367 296.88 64.0194 296.725 64.9861H272.306C272.499 67.5382 273.447 69.5877 275.148 71.1344C276.85 72.6811 278.938 73.4545 281.412 73.4545C284.97 73.4545 287.483 71.9658 288.953 68.9883H296.087C295.12 71.9271 293.361 74.3439 290.809 76.2386C288.295 78.0947 285.163 79.0228 281.412 79.0228C278.358 79.0228 275.612 78.3461 273.176 76.9927C270.779 75.6006 268.884 73.6672 267.492 71.1924C266.138 68.6789 265.462 65.7788 265.462 62.492C265.462 59.2052 266.119 56.3244 267.434 53.8496C268.787 51.3361 270.663 49.4027 273.06 48.0493C275.496 46.6959 278.28 46.0192 281.412 46.0192C284.429 46.0192 287.116 46.6766 289.475 47.9913C291.834 49.306 293.67 51.1621 294.985 53.5596C296.3 55.9183 296.957 58.6445 296.957 61.738ZM290.055 59.6499C290.016 57.2137 289.146 55.261 287.445 53.7916C285.743 52.3222 283.636 51.5875 281.122 51.5875C278.841 51.5875 276.888 52.3222 275.264 53.7916C273.64 55.2223 272.673 57.1751 272.364 59.6499H290.055Z" fill="black"/>
</svg>
